<?xml version="1.0" encoding="utf-8"?>
<svg version="1.1" xmlns:xlink="http://www.w3.org/1999/xlink" width="17px" height="10px" xmlns="http://www.w3.org/2000/svg">
  <g transform="matrix(1 0 0 1 -122 -115 )">
    <path d="M 16.6300223214286 0.2890625  C 16.8766741071429 0.377604166666666  17 0.53125  17 0.75  L 17 9.25  C 17 9.46875  16.8766741071429 9.62239583333333  16.6300223214286 9.7109375  C 16.5478050595238 9.73697916666667  16.46875 9.75  16.3928571428571 9.75  C 16.2220982142857 9.75  16.0797991071429 9.70052083333333  15.9659598214286 9.6015625  L 12.1428571428571 6.453125  L 12.1428571428571 7.75  C 12.1428571428571 8.36979166666667  11.8756510416667 8.89973958333333  11.3412388392857 9.33984375  C 10.8068266369048 9.77994791666667  10.163318452381 10  9.41071428571429 10  L 2.73214285714286 10  C 1.97953869047619 10  1.33603050595238 9.77994791666667  0.801618303571429 9.33984375  C 0.267206101190476 8.89973958333333  0 8.36979166666667  0 7.75  L 0 2.25  C 0 1.63020833333333  0.267206101190476 1.10026041666667  0.801618303571429 0.66015625  C 1.33603050595238 0.220052083333332  1.97953869047619 0  2.73214285714286 0  L 9.41071428571429 0  C 10.163318452381 0  10.8068266369048 0.220052083333332  11.3412388392857 0.66015625  C 11.8756510416667 1.10026041666667  12.1428571428571 1.63020833333333  12.1428571428571 2.25  L 12.1428571428571 3.5390625  L 15.9659598214286 0.3984375  C 16.0797991071429 0.299479166666666  16.2220982142857 0.25  16.3928571428571 0.25  C 16.46875 0.25  16.5478050595238 0.263020833333332  16.6300223214286 0.2890625  Z " fill-rule="nonzero" fill="#ffffff" stroke="none" transform="matrix(1 0 0 1 122 115 )" />
  </g>
</svg>