<?xml version="1.0" encoding="utf-8"?>
<svg version="1.1" xmlns:xlink="http://www.w3.org/1999/xlink" width="7px" height="10px" xmlns="http://www.w3.org/2000/svg">
  <g transform="matrix(1 0 0 1 -107 -115 )">
    <path d="M 6.88454861111111 3.96033653846154  C 6.9615162037037 4.03645833333333  7 4.12660256410256  7 4.23076923076923  L 7 5  C 7 5.88541666666667  6.70124421296296 6.65564903846154  6.10373263888889 7.31069711538462  C 5.50622106481481 7.96574519230769  4.76793981481481 8.34134615384615  3.88888888888889 8.4375  L 3.88888888888889 9.23076923076923  L 5.44444444444444 9.23076923076923  C 5.54976851851852 9.23076923076923  5.64091435185185 9.26883012820513  5.71788194444444 9.34495192307692  C 5.79484953703704 9.42107371794872  5.83333333333333 9.51121794871795  5.83333333333333 9.61538461538462  C 5.83333333333333 9.71955128205128  5.79484953703704 9.80969551282051  5.71788194444444 9.88581730769231  C 5.64091435185185 9.9619391025641  5.54976851851852 10  5.44444444444444 10  L 1.55555555555556 10  C 1.45023148148148 10  1.35908564814815 9.9619391025641  1.28211805555556 9.88581730769231  C 1.20515046296296 9.80969551282051  1.16666666666667 9.71955128205128  1.16666666666667 9.61538461538462  C 1.16666666666667 9.51121794871795  1.20515046296296 9.42107371794872  1.28211805555556 9.34495192307692  C 1.35908564814815 9.26883012820513  1.45023148148148 9.23076923076923  1.55555555555556 9.23076923076923  L 3.11111111111111 9.23076923076923  L 3.11111111111111 8.4375  C 2.23206018518519 8.34134615384615  1.49377893518519 7.96574519230769  0.896267361111111 7.31069711538462  C 0.298755787037037 6.65564903846154  0 5.88541666666667  0 5  L 0 4.23076923076923  C 0 4.12660256410256  0.0384837962962963 4.03645833333333  0.115451388888889 3.96033653846154  C 0.192418981481481 3.88421474358974  0.283564814814815 3.84615384615385  0.388888888888889 3.84615384615385  C 0.494212962962963 3.84615384615385  0.585358796296296 3.88421474358974  0.662326388888889 3.96033653846154  C 0.739293981481482 4.03645833333333  0.777777777777778 4.12660256410256  0.777777777777778 4.23076923076923  L 0.777777777777778 5  C 0.777777777777778 5.7411858974359  1.04412615740741 6.37520032051282  1.57682291666667 6.90204326923077  C 2.10951967592593 7.42888621794872  2.7505787037037 7.69230769230769  3.5 7.69230769230769  C 4.2494212962963 7.69230769230769  4.89048032407407 7.42888621794872  5.42317708333333 6.90204326923077  C 5.95587384259259 6.37520032051282  6.22222222222222 5.7411858974359  6.22222222222222 5  L 6.22222222222222 4.23076923076923  C 6.22222222222222 4.12660256410256  6.26070601851852 4.03645833333333  6.33767361111111 3.96033653846154  C 6.4146412037037 3.88421474358974  6.50578703703704 3.84615384615385  6.61111111111111 3.84615384615385  C 6.71643518518519 3.84615384615385  6.80758101851852 3.88421474358974  6.88454861111111 3.96033653846154  Z M 4.87326388888889 0.564903846153846  C 5.25405092592593 0.94150641025641  5.44444444444444 1.39423076923077  5.44444444444444 1.92307692307692  L 5.44444444444444 5  C 5.44444444444444 5.52884615384615  5.25405092592593 5.98157051282051  4.87326388888889 6.35817307692308  C 4.49247685185185 6.73477564102564  4.03472222222222 6.92307692307692  3.5 6.92307692307692  C 2.96527777777778 6.92307692307692  2.50752314814815 6.73477564102564  2.12673611111111 6.35817307692308  C 1.74594907407407 5.98157051282051  1.55555555555556 5.52884615384615  1.55555555555556 5  L 1.55555555555556 1.92307692307692  C 1.55555555555556 1.39423076923077  1.74594907407407 0.94150641025641  2.12673611111111 0.564903846153846  C 2.50752314814815 0.188301282051283  2.96527777777778 0  3.5 0  C 4.03472222222222 0  4.49247685185185 0.188301282051283  4.87326388888889 0.564903846153846  Z " fill-rule="nonzero" fill="#ffffff" stroke="none" transform="matrix(1 0 0 1 107 115 )" />
  </g>
</svg>