<?xml version="1.0" encoding="utf-8"?>
<svg version="1.1" xmlns:xlink="http://www.w3.org/1999/xlink" width="12px" height="12px" xmlns="http://www.w3.org/2000/svg">
  <g transform="matrix(1 0 0 1 -6 -114 )">
    <path d="M 8.38392857142857 10.5569196428571  C 9.12053571428572 10.1662946428571  9.72544642857143 9.63616071428571  10.1986607142857 8.96651785714286  C 10.1004464285714 8.27455357142857  9.90513392857143 7.69977678571429  9.61272321428572 7.2421875  C 9.3203125 6.78459821428571  8.90848214285714 6.52008928571428  8.37723214285714 6.44866071428571  C 8.078125 6.77901785714286  7.72209821428571 7.03683035714286  7.30915178571428 7.22209821428571  C 6.89620535714286 7.40736607142857  6.45982142857143 7.5  6 7.5  C 5.54017857142857 7.5  5.10379464285714 7.40736607142857  4.69084821428571 7.22209821428571  C 4.27790178571429 7.03683035714286  3.921875 6.77901785714286  3.62276785714286 6.44866071428571  C 3.09151785714286 6.52008928571428  2.6796875 6.78459821428571  2.38727678571429 7.2421875  C 2.09486607142857 7.69977678571429  1.89955357142857 8.27455357142857  1.80133928571429 8.96651785714286  C 2.27455357142857 9.63616071428571  2.87946428571429 10.1662946428571  3.61607142857143 10.5569196428571  C 4.35267857142857 10.9475446428571  5.14732142857143 11.1428571428571  6 11.1428571428571  C 6.85267857142857 11.1428571428571  7.64732142857143 10.9475446428571  8.38392857142857 10.5569196428571  Z M 7.81808035714286 6.10379464285714  C 8.3203125 5.6015625  8.57142857142857 4.99553571428572  8.57142857142857 4.28571428571428  C 8.57142857142857 3.57589285714286  8.3203125 2.96986607142857  7.81808035714286 2.46763392857143  C 7.31584821428572 1.96540178571429  6.70982142857143 1.71428571428571  6 1.71428571428571  C 5.29017857142857 1.71428571428571  4.68415178571429 1.96540178571429  4.18191964285714 2.46763392857143  C 3.6796875 2.96986607142857  3.42857142857143 3.57589285714286  3.42857142857143 4.28571428571428  C 3.42857142857143 4.99553571428572  3.6796875 5.6015625  4.18191964285714 6.10379464285714  C 4.68415178571429 6.60602678571429  5.29017857142857 6.85714285714286  6 6.85714285714286  C 6.70982142857143 6.85714285714286  7.31584821428572 6.60602678571429  7.81808035714286 6.10379464285714  Z M 11.5245535714286 3.66964285714286  C 11.8415178571429 4.41071428571428  12 5.1875  12 6  C 12 6.8125  11.8415178571429 7.58816964285714  11.5245535714286 8.32700892857143  C 11.2075892857143 9.06584821428571  10.7823660714286 9.70424107142857  10.2488839285714 10.2421875  C 9.71540178571429 10.7801339285714  9.078125 11.2075892857143  8.33705357142857 11.5245535714286  C 7.59598214285714 11.8415178571429  6.81696428571428 12  6 12  C 5.1875 12  4.41071428571429 11.8415178571429  3.66964285714286 11.5245535714286  C 2.92857142857143 11.2075892857143  2.29017857142857 10.78125  1.75446428571429 10.2455357142857  C 1.21875 9.70982142857143  0.792410714285714 9.07142857142857  0.475446428571429 8.33035714285714  C 0.158482142857143 7.58928571428571  0 6.8125  0 6  C 0 5.1875  0.158482142857143 4.41071428571428  0.475446428571429 3.66964285714286  C 0.792410714285714 2.92857142857143  1.21875 2.29017857142857  1.75446428571429 1.75446428571429  C 2.29017857142857 1.21875  2.92857142857143 0.792410714285714  3.66964285714286 0.475446428571428  C 4.41071428571429 0.158482142857143  5.1875 0  6 0  C 6.8125 0  7.58928571428572 0.158482142857143  8.33035714285714 0.475446428571428  C 9.07142857142857 0.792410714285714  9.70982142857143 1.21875  10.2455357142857 1.75446428571429  C 10.78125 2.29017857142857  11.2075892857143 2.92857142857143  11.5245535714286 3.66964285714286  Z " fill-rule="nonzero" fill="#f28f38" stroke="none" transform="matrix(1 0 0 1 6 114 )" />
  </g>
</svg>