<?xml version="1.0" encoding="utf-8"?>
<svg version="1.1" xmlns:xlink="http://www.w3.org/1999/xlink" width="7px" height="9px" xmlns="http://www.w3.org/2000/svg">
  <g transform="matrix(1 0 0 1 -89 -246 )">
    <path d="M 1.23082489146165 4.5  C 1.23082489146165 4.69110576923077  1.2561505065123 4.89483173076923  1.3068017366136 5.11117788461539  L 0.795224312590449 5.65745192307692  C 0.653400868306802 5.28605769230769  0.582489146164978 4.90024038461539  0.582489146164978 4.5  L 0.582489146164978 3.80769230769231  C 0.582489146164978 3.71394230769231  0.61456825856247 3.6328125  0.678726483357453 3.56430288461538  C 0.742884708152436 3.49579326923077  0.81886155330439 3.46153846153846  0.906657018813314 3.46153846153846  C 0.994452484322238 3.46153846153846  1.07042932947419 3.49579326923077  1.13458755426918 3.56430288461538  C 1.19874577906416 3.6328125  1.23082489146165 3.71394230769231  1.23082489146165 3.80769230769231  L 1.23082489146165 4.5  Z M 7 1.73076923076923  C 7 1.77764423076923  6.9831162566329 1.81911057692308  6.9493487698987 1.85516826923077  L 5.12083936324168 3.80769230769231  L 5.12083936324168 4.5  C 5.12083936324168 4.97596153846154  4.96213217559093 5.38341346153846  4.64471780028944 5.72235576923077  C 4.32730342498794 6.06129807692308  3.94573082489146 6.23076923076923  3.5 6.23076923076923  C 3.31427882296189 6.23076923076923  3.13024602026049 6.19651442307692  2.9479015918958 6.12800480769231  L 2.4616497829233 6.64723557692308  C 2.78919440424506 6.83112980769231  3.13531114327062 6.92307692307692  3.5 6.92307692307692  C 4.12469850458273 6.92307692307692  4.65906898215147 6.68599759615384  5.10311143270622 6.21183894230769  C 5.54715388326097 5.73768028846154  5.76917510853835 5.16706730769231  5.76917510853835 4.5  L 5.76917510853835 3.80769230769231  C 5.76917510853835 3.71394230769231  5.80125422093584 3.6328125  5.86541244573082 3.56430288461538  C 5.92957067052581 3.49579326923077  6.00554751567776 3.46153846153846  6.09334298118669 3.46153846153846  C 6.18113844669561 3.46153846153846  6.25711529184757 3.49579326923077  6.32127351664255 3.56430288461538  C 6.38543174143753 3.6328125  6.41751085383502 3.71394230769231  6.41751085383502 3.80769230769231  L 6.41751085383502 4.5  C 6.41751085383502 5.296875  6.16847563917029 5.99008413461539  5.67040520984081 6.57962740384615  C 5.17233478051134 7.16917067307692  4.55692233478051 7.50721153846154  3.82416787264834 7.59375  L 3.82416787264834 8.30769230769231  L 5.12083936324168 8.30769230769231  C 5.2086348287506 8.30769230769231  5.28461167390256 8.34194711538462  5.34876989869754 8.41045673076923  C 5.41292812349252 8.47896634615385  5.44500723589001 8.56009615384616  5.44500723589001 8.65384615384615  C 5.44500723589001 8.74759615384615  5.41292812349252 8.82872596153846  5.34876989869754 8.89723557692308  C 5.28461167390256 8.96574519230769  5.2086348287506 9  5.12083936324168 9  L 1.87916063675832 9  C 1.7913651712494 9  1.71538832609744 8.96574519230769  1.65123010130246 8.89723557692308  C 1.58707187650748 8.82872596153846  1.55499276410999 8.74759615384615  1.55499276410999 8.65384615384615  C 1.55499276410999 8.56009615384616  1.58707187650748 8.47896634615385  1.65123010130246 8.41045673076923  C 1.71538832609744 8.34194711538462  1.7913651712494 8.30769230769231  1.87916063675832 8.30769230769231  L 3.17583212735166 8.30769230769231  L 3.17583212735166 7.59375  C 2.75373854317414 7.546875  2.35697057404727 7.40084134615385  1.98552821997106 7.15564903846154  L 0.698986975397974 8.52944711538462  C 0.665219488663772 8.56550480769231  0.626386878919441 8.58353365384615  0.582489146164978 8.58353365384615  C 0.538591413410516 8.58353365384615  0.499758803666184 8.56550480769231  0.465991316931983 8.52944711538462  L 0.0506512301013025 8.0859375  C 0.0168837433671008 8.04987980769231  0 8.00841346153846  0 7.96153846153846  C 0 7.91466346153846  0.0168837433671008 7.87319711538462  0.0506512301013025 7.83713942307692  L 6.30101302460203 1.16286057692308  C 6.33478051133623 1.12680288461538  6.37361312108056 1.10877403846154  6.41751085383502 1.10877403846154  C 6.46140858658948 1.10877403846154  6.50024119633382 1.12680288461538  6.53400868306802 1.16286057692308  L 6.9493487698987 1.60637019230769  C 6.9831162566329 1.64242788461538  7 1.68389423076923  7 1.73076923076923  Z M 4.43451519536903 0.319110576923077  C 4.71309696092619 0.531850961538461  4.90979257115292 0.805889423076923  5.0246020260492 1.14122596153846  L 1.87916063675832 4.5  L 1.87916063675832 1.73076923076923  C 1.87916063675832 1.25480769230769  2.03786782440907 0.847355769230769  2.35528219971056 0.508413461538461  C 2.67269657501206 0.169471153846155  3.05426917510854 0  3.5 0  C 3.84442836468886 0  4.15593342981187 0.106370192307693  4.43451519536903 0.319110576923077  Z " fill-rule="nonzero" fill="#ffffff" stroke="none" transform="matrix(1 0 0 1 89 246 )" />
  </g>
</svg>