<?xml version="1.0" encoding="utf-8"?>
<svg version="1.1" xmlns:xlink="http://www.w3.org/1999/xlink" width="14px" height="9px" xmlns="http://www.w3.org/2000/svg">
  <g transform="matrix(1 0 0 1 -101 -246 )">
    <path d="M 13.6953125 0.26015625  C 13.8984375 0.33984375  14 0.478125  14 0.675  L 14 8.325  C 14 8.521875  13.8984375 8.66015625  13.6953125 8.73984375  C 13.6276041666667 8.76328125  13.5625 8.775  13.5 8.775  C 13.359375 8.775  13.2421875 8.73046875  13.1484375 8.64140625  L 10 5.8078125  L 10 6.975  C 10 7.5328125  9.77994791666667 8.009765625  9.33984375 8.405859375  C 8.89973958333333 8.801953125  8.36979166666667 9  7.75 9  L 2.25 9  C 1.63020833333333 9  1.10026041666667 8.801953125  0.66015625 8.405859375  C 0.220052083333333 8.009765625  0 7.5328125  0 6.975  L 0 2.025  C 0 1.4671875  0.220052083333333 0.990234375  0.66015625 0.594140625  C 1.10026041666667 0.198046874999999  1.63020833333333 0  2.25 0  L 7.75 0  C 8.36979166666667 0  8.89973958333333 0.198046874999999  9.33984375 0.594140625  C 9.77994791666667 0.990234375  10 1.4671875  10 2.025  L 10 3.18515625  L 13.1484375 0.35859375  C 13.2421875 0.26953125  13.359375 0.225  13.5 0.225  C 13.5625 0.225  13.6276041666667 0.236718749999999  13.6953125 0.26015625  Z " fill-rule="nonzero" fill="#ffffff" stroke="none" transform="matrix(1 0 0 1 101 246 )" />
  </g>
</svg>