<?xml version="1.0" encoding="utf-8"?>
<svg version="1.1" xmlns:xlink="http://www.w3.org/1999/xlink" width="12px" height="12px" xmlns="http://www.w3.org/2000/svg">
  <g transform="matrix(1 0 0 1 -1216 -58 )">
    <path d="M 3.06129807692308 9.05208333333333  C 3.24158653846154 9.22569444444444  3.33173076923077 9.43518518518518  3.33173076923077 9.68055555555556  C 3.33173076923077 9.92592592592592  3.24158653846154 10.1354166666667  3.06129807692308 10.3090277777778  C 2.88100961538462 10.4826388888889  2.66346153846154 10.5694444444444  2.40865384615385 10.5694444444444  C 2.15865384615385 10.5694444444444  1.94230769230769 10.4814814814815  1.75961538461538 10.3055555555556  C 1.57692307692308 10.1296296296296  1.48557692307692 9.9212962962963  1.48557692307692 9.68055555555556  C 1.48557692307692 9.43518518518518  1.57572115384615 9.22569444444444  1.75600961538462 9.05208333333333  C 1.93629807692308 8.87847222222222  2.15384615384615 8.79166666666667  2.40865384615385 8.79166666666667  C 2.66346153846154 8.79166666666667  2.88100961538462 8.87847222222222  3.06129807692308 9.05208333333333  Z M 6.65264423076923 10.4826388888889  C 6.83293269230769 10.65625  6.92307692307692 10.8657407407407  6.92307692307692 11.1111111111111  C 6.92307692307692 11.3564814814815  6.83293269230769 11.5659722222222  6.65264423076923 11.7395833333333  C 6.47235576923077 11.9131944444444  6.25480769230769 12  6 12  C 5.74519230769231 12  5.52764423076923 11.9131944444444  5.34735576923077 11.7395833333333  C 5.16706730769231 11.5659722222222  5.07692307692308 11.3564814814815  5.07692307692308 11.1111111111111  C 5.07692307692308 10.8657407407407  5.16706730769231 10.65625  5.34735576923077 10.4826388888889  C 5.52764423076923 10.3090277777778  5.74519230769231 10.2222222222222  6 10.2222222222222  C 6.25480769230769 10.2222222222222  6.47235576923077 10.3090277777778  6.65264423076923 10.4826388888889  Z M 1.57572115384615 5.59375  C 1.75600961538462 5.76736111111111  1.84615384615385 5.97685185185185  1.84615384615385 6.22222222222222  C 1.84615384615385 6.46759259259259  1.75600961538462 6.67708333333333  1.57572115384615 6.85069444444444  C 1.39543269230769 7.02430555555556  1.17788461538462 7.11111111111111  0.923076923076923 7.11111111111111  C 0.668269230769231 7.11111111111111  0.450721153846154 7.02430555555556  0.270432692307692 6.85069444444444  C 0.0901442307692308 6.67708333333333  0 6.46759259259259  0 6.22222222222222  C 0 5.97685185185185  0.0901442307692308 5.76736111111111  0.270432692307692 5.59375  C 0.450721153846154 5.42013888888889  0.668269230769231 5.33333333333333  0.923076923076923 5.33333333333333  C 1.17788461538462 5.33333333333333  1.39543269230769 5.42013888888889  1.57572115384615 5.59375  Z M 10.2439903846154 9.05208333333333  C 10.4242788461538 9.22569444444444  10.5144230769231 9.43518518518518  10.5144230769231 9.68055555555556  C 10.5144230769231 9.9212962962963  10.4230769230769 10.1296296296296  10.2403846153846 10.3055555555556  C 10.0576923076923 10.4814814814815  9.84134615384615 10.5694444444444  9.59134615384615 10.5694444444444  C 9.33653846153846 10.5694444444444  9.11899038461539 10.4826388888889  8.93870192307692 10.3090277777778  C 8.75841346153846 10.1354166666667  8.66826923076923 9.92592592592592  8.66826923076923 9.68055555555556  C 8.66826923076923 9.43518518518518  8.75841346153846 9.22569444444444  8.93870192307692 9.05208333333333  C 9.11899038461539 8.87847222222222  9.33653846153846 8.79166666666667  9.59134615384615 8.79166666666667  C 9.84615384615385 8.79166666666667  10.0637019230769 8.87847222222222  10.2439903846154 9.05208333333333  Z M 3.22355769230769 1.97916666666667  C 3.44951923076923 2.19675925925926  3.5625 2.45833333333333  3.5625 2.76388888888889  C 3.5625 3.06944444444445  3.44951923076923 3.33101851851852  3.22355769230769 3.54861111111111  C 2.99759615384615 3.7662037037037  2.72596153846154 3.875  2.40865384615385 3.875  C 2.09134615384615 3.875  1.81971153846154 3.7662037037037  1.59375 3.54861111111111  C 1.36778846153846 3.33101851851852  1.25480769230769 3.06944444444445  1.25480769230769 2.76388888888889  C 1.25480769230769 2.45833333333333  1.36778846153846 2.19675925925926  1.59375 1.97916666666667  C 1.81971153846154 1.76157407407407  2.09134615384615 1.65277777777778  2.40865384615385 1.65277777777778  C 2.72596153846154 1.65277777777778  2.99759615384615 1.76157407407407  3.22355769230769 1.97916666666667  Z M 11.7295673076923 5.59375  C 11.9098557692308 5.76736111111111  12 5.97685185185185  12 6.22222222222222  C 12 6.46759259259259  11.9098557692308 6.67708333333333  11.7295673076923 6.85069444444444  C 11.5492788461538 7.02430555555556  11.3317307692308 7.11111111111111  11.0769230769231 7.11111111111111  C 10.8221153846154 7.11111111111111  10.6045673076923 7.02430555555556  10.4242788461538 6.85069444444444  C 10.2439903846154 6.67708333333333  10.1538461538462 6.46759259259259  10.1538461538462 6.22222222222222  C 10.1538461538462 5.97685185185185  10.2439903846154 5.76736111111111  10.4242788461538 5.59375  C 10.6045673076923 5.42013888888889  10.8221153846154 5.33333333333333  11.0769230769231 5.33333333333333  C 11.3317307692308 5.33333333333333  11.5492788461538 5.42013888888889  11.7295673076923 5.59375  Z M 6.98076923076923 0.388888888888889  C 7.25 0.648148148148147  7.38461538461539 0.962962962962962  7.38461538461539 1.33333333333333  C 7.38461538461539 1.7037037037037  7.25 2.01851851851852  6.98076923076923 2.27777777777778  C 6.71153846153846 2.53703703703704  6.38461538461539 2.66666666666667  6 2.66666666666667  C 5.61538461538462 2.66666666666667  5.28846153846154 2.53703703703704  5.01923076923077 2.27777777777778  C 4.75 2.01851851851852  4.61538461538462 1.7037037037037  4.61538461538462 1.33333333333333  C 4.61538461538462 0.962962962962962  4.75 0.648148148148147  5.01923076923077 0.388888888888889  C 5.28846153846154 0.12962962962963  5.61538461538462 0  6 0  C 6.38461538461539 0  6.71153846153846 0.12962962962963  6.98076923076923 0.388888888888889  Z M 10.7307692307692 1.66666666666667  C 11.0480769230769 1.97222222222222  11.2067307692308 2.33796296296296  11.2067307692308 2.76388888888889  C 11.2067307692308 3.19444444444444  11.0480769230769 3.56134259259259  10.7307692307692 3.86458333333333  C 10.4134615384615 4.16782407407407  10.0336538461538 4.31944444444444  9.59134615384615 4.31944444444444  C 9.14423076923077 4.31944444444444  8.76322115384615 4.16782407407407  8.44831730769231 3.86458333333333  C 8.13341346153846 3.56134259259259  7.97596153846154 3.19444444444444  7.97596153846154 2.76388888888889  C 7.97596153846154 2.33796296296296  8.13341346153846 1.97222222222222  8.44831730769231 1.66666666666667  C 8.76322115384615 1.36111111111111  9.14423076923077 1.20833333333333  9.59134615384615 1.20833333333333  C 10.0336538461538 1.20833333333333  10.4134615384615 1.36111111111111  10.7307692307692 1.66666666666667  Z " fill-rule="nonzero" fill="#7f7f7f" stroke="none" transform="matrix(1 0 0 1 1216 58 )" />
  </g>
</svg>