<?xml version="1.0" encoding="utf-8"?>
<svg version="1.1" xmlns:xlink="http://www.w3.org/1999/xlink" width="53px" height="50px" xmlns="http://www.w3.org/2000/svg">
  <g transform="matrix(1 0 0 1 -204 -72 )">
    <path d="M 26.447973046875 0.0364452560512992  C 11.8503962292269 0.0364452560512992  0.0169325833183033 11.2000902050217  0.0169325833183033 24.9713890895954  C 0.0169325833183033 38.7423991826228  11.8503962292269 49.905986328125  26.447973046875 49.905986328125  C 41.0452437454841 49.905986328125  52.8786461197164 38.7423413791546  52.8786461197164 24.9713890895954  C 52.8786461197164 11.2000324015535  41.0452437454841 0.0364452560512992  26.447973046875 0.0364452560512992  Z M 24.1375753217576 10.5361472633671  C 24.1375141099169 8.78773731033237  25.4465537357749 9.03537284365967  25.4465537357749 9.03537284365967  L 27.725050518199 9.03537284365967  C 28.5906613382858 9.03537284365967  29.2303940638548 9.31264151688945  29.1567954118497 10.5361472069184  L 28.352169834944 30.1702918962247  C 28.3188606010657 30.7217099440029  27.8415102635025 31.1580614952132  27.284683201996 31.1580614952132  L 26.0095650480943 31.1580614952132  C 25.4527379267522 31.1580614952132  24.9750814701499 30.7215366464957  24.9420784151463 30.1702918962247  L 24.1375753217576 10.5361472633671  Z M 26.6466036748103 41.2820067512644  C 24.6708900356755 41.2820067512644  23.0695376027366 39.7710658643425  23.0695376027366 37.9072428197254  C 23.0695376027366 36.0435930726156  24.6708900356755 34.5326521856936  26.6466036748103 34.5326521856936  C 28.6222561021044 34.5326521856936  30.2238534422417 36.0435930726156  30.2238534422417 37.9072428197254  C 30.2236085350433 39.7710658643425  28.6222561021044 41.2820067512644  26.6466036748103 41.2820067512644  Z " fill-rule="nonzero" fill="#cdcdcd" stroke="none" transform="matrix(1 0 0 1 204 72 )" />
  </g>
</svg>