<?xml version="1.0" encoding="utf-8"?>
<svg version="1.1" xmlns:xlink="http://www.w3.org/1999/xlink" width="217px" height="32px" xmlns="http://www.w3.org/2000/svg">
  <defs>
    <mask fill="white" id="clip44">
      <path d="M 0 28  L 0 4  C 0 1.75999999999999  1.75999999999999 0  4 0  L 76.5849056603752 0  L 111.30188679245 0  L 141.947368421053 0  L 213 0  C 215.24 0  217 1.75999999999999  217 4  L 217 28  C 217 30.24  215.24 32  213 32  L 134.052631578947 32  L 4 32  C 1.75999999999999 32  0 30.24  0 28  Z " fill-rule="evenodd" />
    </mask>
  </defs>
  <g>
    <path d="M 0 28  L 0 4  C 0 1.75999999999999  1.75999999999999 0  4 0  L 76.5849056603752 0  L 111.30188679245 0  L 141.947368421053 0  L 213 0  C 215.24 0  217 1.75999999999999  217 4  L 217 28  C 217 30.24  215.24 32  213 32  L 134.052631578947 32  L 4 32  C 1.75999999999999 32  0 30.24  0 28  Z " fill-rule="nonzero" fill="#000026" stroke="none" />
    <path d="M 0 28  L 0 4  C 0 1.75999999999999  1.75999999999999 0  4 0  L 76.5849056603752 0  L 111.30188679245 0  L 141.947368421053 0  L 213 0  C 215.24 0  217 1.75999999999999  217 4  L 217 28  C 217 30.24  215.24 32  213 32  L 134.052631578947 32  L 4 32  C 1.75999999999999 32  0 30.24  0 28  Z " stroke-width="2" stroke="#15c2d6" fill="none" stroke-opacity="0.996078431372549" mask="url(#clip44)" />
  </g>
</svg>