<?xml version="1.0" encoding="utf-8"?>
<svg version="1.1" xmlns:xlink="http://www.w3.org/1999/xlink" width="5px" height="9px" xmlns="http://www.w3.org/2000/svg">
  <g transform="matrix(1 0 0 1 -37 -13 )">
    <path d="M 4.91408934707901 0.541082164328651  C 4.97136311569297 0.601202404809618  5 0.67034068136272  5 0.748496993987982  C 5 0.826653306613218  4.97136311569297 0.89579158316632  4.91408934707901 0.955911823647287  L 1.53780068728527 4.5  L 4.91408934707901 8.04408817635271  C 4.97136311569297 8.10420841683368  5 8.17334669338678  5 8.25150300601202  C 5 8.32965931863728  4.97136311569297 8.39879759519038  4.91408934707901 8.45891783567135  L 4.48453608247424 8.90981963927858  C 4.42726231386028 8.96993987975952  4.36139747995422 9  4.28694158075605 9  C 4.21248568155789 9  4.14662084765183 8.96993987975952  4.08934707903787 8.90981963927858  L 0.0859106529209915 4.70741482965931  C 0.0286368843070287 4.64729458917836  0 4.57815631262526  0 4.5  C 0 4.42184368737474  0.0286368843070287 4.35270541082164  0.0859106529209915 4.29258517034069  L 4.08934707903787 0.0901803607214248  C 4.14662084765183 0.0300601202404835  4.21248568155789 0  4.28694158075605 0  C 4.36139747995422 0  4.42726231386028 0.0300601202404835  4.48453608247424 0.0901803607214248  L 4.91408934707901 0.541082164328651  Z " fill-rule="nonzero" fill="#000026" stroke="none" transform="matrix(1 0 0 1 37 13 )" />
  </g>
</svg>