<?xml version="1.0" encoding="utf-8"?>
<svg version="1.1" xmlns:xlink="http://www.w3.org/1999/xlink" width="9px" height="9px" xmlns="http://www.w3.org/2000/svg">
  <g transform="matrix(1 0 0 1 -19 -13 )">
    <path d="M 5.32919254658384 8.04408817635271  C 5.39130434782616 8.10420841683368  5.42236024844716 8.17334669338678  5.42236024844716 8.25150300601202  C 5.42236024844716 8.32965931863728  5.39130434782616 8.39879759519038  5.32919254658384 8.45891783567135  L 4.86335403726704 8.90981963927858  C 4.80124223602493 8.96993987975952  4.72981366459637 9  4.64906832298127 9  C 4.56832298136648 9  4.49689440993782 8.96993987975952  4.43478260869561 8.90981963927858  L 0.0931677018633195 4.70741482965931  C 0.0310559006212088 4.64729458917836  0 4.57815631262526  0 4.5  C 0 4.42184368737474  0.0310559006212088 4.35270541082164  0.0931677018633195 4.29258517034069  L 4.43478260869561 0.0901803607214248  C 4.49689440993782 0.0300601202404835  4.56832298136648 0  4.64906832298127 0  C 4.72981366459637 0  4.80124223602493 0.0300601202404835  4.86335403726704 0.0901803607214248  L 5.32919254658384 0.541082164328651  C 5.39130434782616 0.601202404809618  5.42236024844716 0.67034068136272  5.42236024844716 0.748496993987982  C 5.42236024844716 0.826653306613218  5.39130434782616 0.89579158316632  5.32919254658384 0.955911823647287  L 1.66770186335402 4.5  L 5.32919254658384 8.04408817635271  Z M 8.90683229813668 8.04408817635271  C 8.96894409937889 8.10420841683368  9 8.17334669338678  9 8.25150300601202  C 9 8.32965931863728  8.96894409937889 8.39879759519038  8.90683229813668 8.45891783567135  L 8.44099378881978 8.90981963927858  C 8.37888198757767 8.96993987975952  8.30745341614911 9  8.22670807453411 9  C 8.14596273291921 9  8.07453416149066 8.96993987975952  8.01242236024834 8.90981963927858  L 3.67080745341616 4.70741482965931  C 3.60869565217384 4.64729458917836  3.57763975155284 4.57815631262526  3.57763975155284 4.5  C 3.57763975155284 4.42184368737474  3.60869565217384 4.35270541082164  3.67080745341616 4.29258517034069  L 8.01242236024834 0.0901803607214248  C 8.07453416149066 0.0300601202404835  8.14596273291921 0  8.22670807453411 0  C 8.30745341614911 0  8.37888198757767 0.0300601202404835  8.44099378881978 0.0901803607214248  L 8.90683229813668 0.541082164328651  C 8.96894409937889 0.601202404809618  9 0.67034068136272  9 0.748496993987982  C 9 0.826653306613218  8.96894409937889 0.89579158316632  8.90683229813668 0.955911823647287  L 5.24534161490686 4.5  L 8.90683229813668 8.04408817635271  Z " fill-rule="nonzero" fill="#000026" stroke="none" transform="matrix(1 0 0 1 19 13 )" />
  </g>
</svg>