<?xml version="1.0" encoding="utf-8"?>
<svg version="1.1" xmlns:xlink="http://www.w3.org/1999/xlink" width="5px" height="9px" xmlns="http://www.w3.org/2000/svg">
  <g transform="matrix(1 0 0 1 -181 -13 )">
    <path d="M 4.91408934707901 4.29258517034069  C 4.97136311569297 4.35270541082164  5 4.42184368737474  5 4.5  C 5 4.57815631262526  4.97136311569297 4.64729458917836  4.91408934707901 4.70741482965931  L 0.910652920962131 8.90981963927858  C 0.853379152348168 8.96993987975952  0.787514318442106 9  0.713058419243945 9  C 0.638602520045784 9  0.572737686139722 8.96993987975952  0.515463917525759 8.90981963927858  L 0.0859106529209915 8.45891783567135  C 0.0286368843070287 8.39879759519038  0 8.32965931863728  0 8.25150300601202  C 0 8.17334669338678  0.0286368843070287 8.10420841683368  0.0859106529209915 8.04408817635271  L 3.46219931271473 4.5  L 0.0859106529209915 0.955911823647287  C 0.0286368843070287 0.89579158316632  0 0.826653306613218  0 0.748496993987982  C 0 0.67034068136272  0.0286368843070287 0.601202404809618  0.0859106529209915 0.541082164328651  L 0.515463917525759 0.0901803607214248  C 0.572737686139722 0.0300601202404835  0.638602520045784 0  0.713058419243945 0  C 0.787514318442106 0  0.853379152348168 0.0300601202404835  0.910652920962131 0.0901803607214248  L 4.91408934707901 4.29258517034069  Z " fill-rule="nonzero" fill="#000026" stroke="none" transform="matrix(1 0 0 1 181 13 )" />
  </g>
</svg>