<?xml version="1.0" encoding="utf-8"?>
<svg version="1.1" xmlns:xlink="http://www.w3.org/1999/xlink" width="86px" height="32px" xmlns="http://www.w3.org/2000/svg">
  <defs>
    <mask fill="white" id="clip46">
      <path d="M 0 28  L 0 4  C 0 1.75999999999999  1.75999999999999 0  4 0  L 56.1935483870968 0  L 57.8064516129032 0  L 82 0  C 84.24 0  86 1.75999999999999  86 4  L 86 28  C 86 30.24  84.24 32  82 32  L 53.8333333333335 32  L 4 32  C 1.75999999999999 32  0 30.24  0 28  Z " fill-rule="evenodd" />
    </mask>
  </defs>
  <g transform="matrix(1 0 0 1 -1093 -22 )">
    <path d="M 0 28  L 0 4  C 0 1.75999999999999  1.75999999999999 0  4 0  L 56.1935483870968 0  L 57.8064516129032 0  L 82 0  C 84.24 0  86 1.75999999999999  86 4  L 86 28  C 86 30.24  84.24 32  82 32  L 53.8333333333335 32  L 4 32  C 1.75999999999999 32  0 30.24  0 28  Z " fill-rule="nonzero" fill="#797979" stroke="none" fill-opacity="0" transform="matrix(1 0 0 1 1093 22 )" />
    <path d="M 0 28  L 0 4  C 0 1.75999999999999  1.75999999999999 0  4 0  L 56.1935483870968 0  L 57.8064516129032 0  L 82 0  C 84.24 0  86 1.75999999999999  86 4  L 86 28  C 86 30.24  84.24 32  82 32  L 53.8333333333335 32  L 4 32  C 1.75999999999999 32  0 30.24  0 28  Z " stroke-width="2" stroke="#0096fa" fill="none" transform="matrix(1 0 0 1 1093 22 )" mask="url(#clip46)" />
  </g>
</svg>