<?xml version="1.0" encoding="utf-8"?>
<svg version="1.1" xmlns:xlink="http://www.w3.org/1999/xlink" width="9px" height="9px" xmlns="http://www.w3.org/2000/svg">
  <g transform="matrix(1 0 0 1 -195 -13 )">
    <path d="M 5.32919254658384 4.29258517034069  C 5.39130434782616 4.35270541082164  5.42236024844716 4.42184368737474  5.42236024844716 4.5  C 5.42236024844716 4.57815631262526  5.39130434782616 4.64729458917836  5.32919254658384 4.70741482965931  L 0.987577639751657 8.90981963927858  C 0.925465838509342 8.96993987975952  0.854037267080787 9  0.77329192546589 9  C 0.69254658385089 9  0.621118012422335 8.96993987975952  0.559006211180224 8.90981963927858  L 0.0931677018633195 8.45891783567135  C 0.0310559006211065 8.39879759519038  0 8.32965931863728  0 8.25150300601202  C 0 8.17334669338678  0.0310559006211065 8.10420841683368  0.0931677018633195 8.04408817635271  L 3.75465838509314 4.5  L 0.0931677018633195 0.955911823647287  C 0.0310559006211065 0.89579158316632  0 0.826653306613218  0 0.748496993987982  C 0 0.67034068136272  0.0310559006211065 0.601202404809618  0.0931677018633195 0.541082164328651  L 0.559006211180224 0.0901803607214248  C 0.621118012422335 0.0300601202404835  0.69254658385089 0  0.77329192546589 0  C 0.854037267080787 0  0.925465838509342 0.0300601202404835  0.987577639751657 0.0901803607214248  L 5.32919254658384 4.29258517034069  Z M 8.90683229813668 4.29258517034069  C 8.96894409937889 4.35270541082164  9 4.42184368737474  9 4.5  C 9 4.57815631262526  8.96894409937889 4.64729458917836  8.90683229813668 4.70741482965931  L 4.56521739130439 8.90981963927858  C 4.50310559006218 8.96993987975952  4.43167701863352 9  4.35093167701873 9  C 4.27018633540363 9  4.19875776397507 8.96993987975952  4.13664596273296 8.90981963927858  L 3.67080745341616 8.45891783567135  C 3.60869565217384 8.39879759519038  3.57763975155284 8.32965931863728  3.57763975155284 8.25150300601202  C 3.57763975155284 8.17334669338678  3.60869565217384 8.10420841683368  3.67080745341616 8.04408817635271  L 7.33229813664598 4.5  L 3.67080745341616 0.955911823647287  C 3.60869565217384 0.89579158316632  3.57763975155284 0.826653306613218  3.57763975155284 0.748496993987982  C 3.57763975155284 0.67034068136272  3.60869565217384 0.601202404809618  3.67080745341616 0.541082164328651  L 4.13664596273296 0.0901803607214248  C 4.19875776397507 0.0300601202404835  4.27018633540363 0  4.35093167701873 0  C 4.43167701863352 0  4.50310559006218 0.0300601202404835  4.56521739130439 0.0901803607214248  L 8.90683229813668 4.29258517034069  Z " fill-rule="nonzero" fill="#000026" stroke="none" transform="matrix(1 0 0 1 195 13 )" />
  </g>
</svg>