<?xml version="1.0" encoding="utf-8"?>
<svg version="1.1" xmlns:xlink="http://www.w3.org/1999/xlink" width="31px" height="32px" xmlns="http://www.w3.org/2000/svg">
  <g transform="matrix(1 0 0 1 -1526 -97 )">
    <path d="M 22.8059895833333 21.6666666666667  C 23.0616319444444 21.4027777777778  23.189453125 21.0833333333333  23.189453125 20.7083333333333  C 23.189453125 20.3472222222222  23.0616319444444 20.0347222222222  22.8059895833333 19.7708333333333  L 19.1529947916667 16  L 22.8059895833333 12.2291666666667  C 23.0616319444444 11.9652777777778  23.189453125 11.6527777777778  23.189453125 11.2916666666667  C 23.189453125 10.9166666666667  23.0616319444444 10.5972222222222  22.8059895833333 10.3333333333333  L 20.9895833333333 8.45833333333333  C 20.7339409722222 8.19444444444444  20.4244791666667 8.0625  20.0611979166667 8.0625  C 19.7113715277778 8.0625  19.4086371527778 8.19444444444444  19.1529947916667 8.45833333333333  L 15.5 12.2291666666667  L 11.8470052083333 8.45833333333333  C 11.5913628472222 8.19444444444444  11.2886284722222 8.0625  10.9388020833333 8.0625  C 10.5755208333333 8.0625  10.2660590277778 8.19444444444444  10.0104166666667 8.45833333333333  L 8.19401041666667 10.3333333333333  C 7.93836805555556 10.5972222222222  7.810546875 10.9166666666667  7.810546875 11.2916666666667  C 7.810546875 11.6527777777778  7.93836805555556 11.9652777777778  8.19401041666667 12.2291666666667  L 11.8470052083333 16  L 8.19401041666667 19.7708333333333  C 7.93836805555556 20.0347222222222  7.810546875 20.3472222222222  7.810546875 20.7083333333333  C 7.810546875 21.0833333333333  7.93836805555556 21.4027777777778  8.19401041666667 21.6666666666667  L 10.0104166666667 23.5416666666667  C 10.2660590277778 23.8055555555556  10.5755208333333 23.9375  10.9388020833333 23.9375  C 11.2886284722222 23.9375  11.5913628472222 23.8055555555556  11.8470052083333 23.5416666666667  L 15.5 19.7708333333333  L 19.1529947916667 23.5416666666667  C 19.4086371527778 23.8055555555556  19.7113715277778 23.9375  20.0611979166667 23.9375  C 20.4244791666667 23.9375  20.7339409722222 23.8055555555556  20.9895833333333 23.5416666666667  L 22.8059895833333 21.6666666666667  Z M 28.9212239583333 7.96875  C 30.3070746527778 10.4201388888889  31 13.0972222222222  31 16  C 31 18.9027777777778  30.3070746527778 21.5798611111111  28.9212239583333 24.03125  C 27.5353732638889 26.4826388888889  25.6550564236111 28.4236111111111  23.2802734375 29.8541666666667  C 20.9054904513889 31.2847222222222  18.3120659722222 32  15.5 32  C 12.6879340277778 32  10.0945095486111 31.2847222222222  7.7197265625 29.8541666666667  C 5.34494357638889 28.4236111111111  3.46462673611111 26.4826388888889  2.07877604166667 24.03125  C 0.692925347222222 21.5798611111111  0 18.9027777777778  0 16  C 0 13.0972222222222  0.692925347222222 10.4201388888889  2.07877604166667 7.96875  C 3.46462673611111 5.51736111111111  5.34494357638889 3.57638888888889  7.7197265625 2.14583333333333  C 10.0945095486111 0.715277777777775  12.6879340277778 0  15.5 0  C 18.3120659722222 0  20.9054904513889 0.715277777777775  23.2802734375 2.14583333333333  C 25.6550564236111 3.57638888888889  27.5353732638889 5.51736111111111  28.9212239583333 7.96875  Z " fill-rule="nonzero" fill="#15c2d6" stroke="none" transform="matrix(1 0 0 1 1526 97 )" />
  </g>
</svg>