<?xml version="1.0" encoding="utf-8"?>
<svg version="1.1" xmlns:xlink="http://www.w3.org/1999/xlink" width="19px" height="19px" xmlns="http://www.w3.org/2000/svg">
  <g transform="matrix(1 0 0 1 -628 -101 )">
    <path d="M 637.5 102  C 642.26 102  646 105.74  646 110.5  C 646 115.26  642.26 119  637.5 119  C 632.74 119  629 115.26  629 110.5  C 629 105.74  632.74 102  637.5 102  Z " fill-rule="nonzero" fill="#ffffff" stroke="none" />
    <path d="M 637.5 102  C 642.26 102  646 105.74  646 110.5  C 646 115.26  642.26 119  637.5 119  C 632.74 119  629 115.26  629 110.5  C 629 105.74  632.74 102  637.5 102  Z " stroke-width="2" stroke="#7f7f7f" fill="none" />
  </g>
</svg>