<?xml version="1.0" encoding="utf-8"?>
<svg version="1.1" xmlns:xlink="http://www.w3.org/1999/xlink" width="109px" height="115px" xmlns="http://www.w3.org/2000/svg">
  <defs>
    <mask fill="white" id="clip47">
      <path d="M 0.967880085653178 66  L 42.9778869778868 23.4619164619164  L 108.248394004283 0.790149892933641  L 104.402948402948 66  L 91.3319057815845 104.002141327623  L 41.4389721627408 114.066381156317  L 0.967880085653178 66  Z " fill-rule="evenodd" />
    </mask>
  </defs>
  <g transform="matrix(1 0 0 1 -1695 -466 )">
    <path d="M 0.967880085653178 66  L 42.9778869778868 23.4619164619164  L 108.248394004283 0.790149892933641  L 104.402948402948 66  L 91.3319057815845 104.002141327623  L 41.4389721627408 114.066381156317  L 0.967880085653178 66  Z " fill-rule="nonzero" fill="#caf982" stroke="none" fill-opacity="0.352941176470588" transform="matrix(1 0 0 1 1695 466 )" />
    <path d="M 0.967880085653178 66  L 42.9778869778868 23.4619164619164  L 108.248394004283 0.790149892933641  L 104.402948402948 66  L 91.3319057815845 104.002141327623  L 41.4389721627408 114.066381156317  L 0.967880085653178 66  Z " stroke-width="2" stroke="#95f204" fill="none" transform="matrix(1 0 0 1 1695 466 )" mask="url(#clip47)" />
  </g>
</svg>