<?xml version="1.0" encoding="utf-8"?>
<svg version="1.1" xmlns:xlink="http://www.w3.org/1999/xlink" width="28px" height="28px" xmlns="http://www.w3.org/2000/svg">
  <defs>
    <filter x="1644px" y="143px" width="28px" height="28px" filterUnits="userSpaceOnUse" id="filter48">
      <feOffset dx="1" dy="1" in="SourceAlpha" result="shadowOffsetInner" />
      <feGaussianBlur stdDeviation="2.5" in="shadowOffsetInner" result="shadowGaussian" />
      <feComposite in2="shadowGaussian" operator="atop" in="SourceAlpha" result="shadowComposite" />
      <feColorMatrix type="matrix" values="0 0 0 0 0  0 0 0 0 0  0 0 0 0 0  0 0 0 0.698039215686274 0  " in="shadowComposite" />
    </filter>
    <g id="widget49">
      <path d="M 1657 147  C 1662.04 147  1666 150.96  1666 156  C 1666 161.04  1662.04 165  1657 165  C 1651.96 165  1648 161.04  1648 156  C 1648 150.96  1651.96 147  1657 147  Z " fill-rule="nonzero" fill="#009dd9" stroke="none" />
      <path d="M 1657 147.5  C 1661.76 147.5  1665.5 151.24  1665.5 156  C 1665.5 160.76  1661.76 164.5  1657 164.5  C 1652.24 164.5  1648.5 160.76  1648.5 156  C 1648.5 151.24  1652.24 147.5  1657 147.5  Z " stroke-width="1" stroke="#ffffff" fill="none" />
    </g>
  </defs>
  <g transform="matrix(1 0 0 1 -1644 -143 )">
    <use xlink:href="#widget49" filter="url(#filter48)" />
    <use xlink:href="#widget49" />
  </g>
</svg>