<?xml version="1.0" encoding="utf-8"?>
<svg version="1.1" xmlns:xlink="http://www.w3.org/1999/xlink" width="94px" height="20px" xmlns="http://www.w3.org/2000/svg">
  <g transform="matrix(1 0 0 1 -1684 -146 )">
    <path d="M 1685 156  A 9 9 0 0 1 1694 147 L 1768 147  A 9 9 0 0 1 1777 156 A 9 9 0 0 1 1768 165 L 1694 165  A 9 9 0 0 1 1685 156 Z " fill-rule="nonzero" fill="#d7d7d7" stroke="none" fill-opacity="0" />
    <path d="M 1684.5 156  A 9.5 9.5 0 0 1 1694 146.5 L 1768 146.5  A 9.5 9.5 0 0 1 1777.5 156 A 9.5 9.5 0 0 1 1768 165.5 L 1694 165.5  A 9.5 9.5 0 0 1 1684.5 156 Z " stroke-width="1" stroke="#d7d7d7" fill="none" stroke-opacity="0.988235294117647" />
  </g>
</svg>