<?xml version="1.0" encoding="utf-8"?>
<svg version="1.1" xmlns:xlink="http://www.w3.org/1999/xlink" width="8px" height="13px" xmlns="http://www.w3.org/2000/svg">
  <g transform="matrix(1 0 0 1 -1653 -150 )">
    <path d="M 7.5625 3.95909090909091  C 7.85416666666667 4.23484848484848  8 4.56969696969697  8 4.96363636363636  L 8 8.03636363636364  C 8 8.23333333333333  7.92708333333333 8.40075757575758  7.78125 8.53863636363636  C 7.63541666666667 8.67651515151515  7.45833333333333 8.74545454545455  7.25 8.74545454545455  C 7.04166666666667 8.74545454545455  6.86458333333333 8.67651515151515  6.71875 8.53863636363636  C 6.57291666666667 8.40075757575758  6.5 8.23333333333333  6.5 8.03636363636364  L 6.5 5.43636363636364  L 6 5.43636363636364  L 6 12.1727272727273  C 6 12.3992424242424  5.9140625 12.59375  5.7421875 12.75625  C 5.5703125 12.91875  5.36458333333333 13  5.125 13  C 4.88541666666667 13  4.6796875 12.91875  4.5078125 12.75625  C 4.3359375 12.59375  4.25 12.3992424242424  4.25 12.1727272727273  L 4.25 8.74545454545455  L 3.75 8.74545454545455  L 3.75 12.1727272727273  C 3.75 12.3992424242424  3.6640625 12.59375  3.4921875 12.75625  C 3.3203125 12.91875  3.11458333333333 13  2.875 13  C 2.63541666666667 13  2.4296875 12.91875  2.2578125 12.75625  C 2.0859375 12.59375  2 12.3992424242424  2 12.1727272727273  L 2 5.43636363636364  L 1.5 5.43636363636364  L 1.5 8.03636363636364  C 1.5 8.23333333333333  1.42708333333333 8.40075757575758  1.28125 8.53863636363636  C 1.13541666666667 8.67651515151515  0.958333333333333 8.74545454545455  0.75 8.74545454545455  C 0.541666666666667 8.74545454545455  0.364583333333333 8.67651515151515  0.21875 8.53863636363636  C 0.0729166666666667 8.40075757575758  0 8.23333333333333  0 8.03636363636364  L 0 4.96363636363636  C 0 4.56969696969697  0.145833333333333 4.23484848484848  0.4375 3.95909090909091  C 0.729166666666667 3.68333333333333  1.08333333333333 3.54545454545455  1.5 3.54545454545455  L 6.5 3.54545454545455  C 6.91666666666667 3.54545454545455  7.27083333333333 3.68333333333333  7.5625 3.95909090909091  Z M 5.23828125 0.483806818181818  C 5.57942708333333 0.806344696969695  5.75 1.19659090909091  5.75 1.65454545454546  C 5.75 2.1125  5.57942708333333 2.50274621212121  5.23828125 2.82528409090909  C 4.89713541666667 3.14782196969697  4.484375 3.30909090909091  4 3.30909090909091  C 3.515625 3.30909090909091  3.10286458333333 3.14782196969697  2.76171875 2.82528409090909  C 2.42057291666667 2.50274621212121  2.25 2.1125  2.25 1.65454545454546  C 2.25 1.19659090909091  2.42057291666667 0.806344696969695  2.76171875 0.483806818181818  C 3.10286458333333 0.161268939393938  3.515625 0  4 0  C 4.484375 0  4.89713541666667 0.161268939393938  5.23828125 0.483806818181818  Z " fill-rule="nonzero" fill="#ffffff" stroke="none" transform="matrix(1 0 0 1 1653 150 )" />
  </g>
</svg>