<?xml version="1.0" encoding="utf-8"?>
<svg version="1.1" xmlns:xlink="http://www.w3.org/1999/xlink" width="20px" height="25px" xmlns="http://www.w3.org/2000/svg">
  <defs>
    <linearGradient gradientUnits="userSpaceOnUse" x1="10" y1="0" x2="10" y2="25" id="LinearGradient61">
      <stop id="Stop62" stop-color="#6633ff" offset="0" />
      <stop id="Stop63" stop-color="#6633ff" offset="0.33" />
      <stop id="Stop64" stop-color="#1dc2cf" offset="0.76" />
      <stop id="Stop65" stop-color="#ceb39b" offset="1" />
    </linearGradient>
  </defs>
  <g transform="matrix(1 0 0 1 -1 -1 )">
    <path d="M 5.31960227272727 17.9896763392857  C 5.40956439393939 18.0780319940476  5.45454545454545 18.1826636904762  5.45454545454545 18.3035714285714  L 5.45454545454545 19.1964285714286  C 5.45454545454545 19.3173363095238  5.40956439393939 19.4219680059524  5.31960227272727 19.5103236607143  C 5.22964015151515 19.5986793154762  5.12310606060606 19.6428571428571  5 19.6428571428571  L 4.09090909090909 19.6428571428571  C 3.96780303030303 19.6428571428571  3.86126893939394 19.5986793154762  3.77130681818182 19.5103236607143  C 3.6813446969697 19.4219680059524  3.63636363636364 19.3173363095238  3.63636363636364 19.1964285714286  L 3.63636363636364 18.3035714285714  C 3.63636363636364 18.1826636904762  3.6813446969697 18.0780319940476  3.77130681818182 17.9896763392857  C 3.86126893939394 17.9013206845238  3.96780303030303 17.8571428571429  4.09090909090909 17.8571428571429  L 5 17.8571428571429  C 5.12310606060606 17.8571428571429  5.22964015151515 17.9013206845238  5.31960227272727 17.9896763392857  Z M 5.31960227272727 14.4182477678571  C 5.40956439393939 14.506603422619  5.45454545454545 14.6112351190476  5.45454545454545 14.7321428571429  L 5.45454545454545 15.625  C 5.45454545454545 15.7459077380952  5.40956439393939 15.8505394345238  5.31960227272727 15.9388950892857  C 5.22964015151515 16.0272507440476  5.12310606060606 16.0714285714286  5 16.0714285714286  L 4.09090909090909 16.0714285714286  C 3.96780303030303 16.0714285714286  3.86126893939394 16.0272507440476  3.77130681818182 15.9388950892857  C 3.6813446969697 15.8505394345238  3.63636363636364 15.7459077380952  3.63636363636364 15.625  L 3.63636363636364 14.7321428571429  C 3.63636363636364 14.6112351190476  3.6813446969697 14.506603422619  3.77130681818182 14.4182477678571  C 3.86126893939394 14.3298921130952  3.96780303030303 14.2857142857143  4.09090909090909 14.2857142857143  L 5 14.2857142857143  C 5.12310606060606 14.2857142857143  5.22964015151515 14.3298921130952  5.31960227272727 14.4182477678571  Z M 8.95596590909091 14.4182477678571  C 9.04592803030303 14.506603422619  9.09090909090909 14.6112351190476  9.09090909090909 14.7321428571429  L 9.09090909090909 15.625  C 9.09090909090909 15.7459077380952  9.04592803030303 15.8505394345238  8.95596590909091 15.9388950892857  C 8.86600378787879 16.0272507440476  8.7594696969697 16.0714285714286  8.63636363636364 16.0714285714286  L 7.72727272727273 16.0714285714286  C 7.60416666666667 16.0714285714286  7.49763257575758 16.0272507440476  7.40767045454545 15.9388950892857  C 7.31770833333333 15.8505394345238  7.27272727272727 15.7459077380952  7.27272727272727 15.625  L 7.27272727272727 14.7321428571429  C 7.27272727272727 14.6112351190476  7.31770833333333 14.506603422619  7.40767045454545 14.4182477678571  C 7.49763257575758 14.3298921130952  7.60416666666667 14.2857142857143  7.72727272727273 14.2857142857143  L 8.63636363636364 14.2857142857143  C 8.7594696969697 14.2857142857143  8.86600378787879 14.3298921130952  8.95596590909091 14.4182477678571  Z M 5.31960227272727 10.8468191964286  C 5.40956439393939 10.9351748511905  5.45454545454545 11.039806547619  5.45454545454545 11.1607142857143  L 5.45454545454545 12.0535714285714  C 5.45454545454545 12.1744791666667  5.40956439393939 12.2791108630952  5.31960227272727 12.3674665178571  C 5.22964015151515 12.455822172619  5.12310606060606 12.5  5 12.5  L 4.09090909090909 12.5  C 3.96780303030303 12.5  3.86126893939394 12.455822172619  3.77130681818182 12.3674665178571  C 3.6813446969697 12.2791108630952  3.63636363636364 12.1744791666667  3.63636363636364 12.0535714285714  L 3.63636363636364 11.1607142857143  C 3.63636363636364 11.039806547619  3.6813446969697 10.9351748511905  3.77130681818182 10.8468191964286  C 3.86126893939394 10.7584635416667  3.96780303030303 10.7142857142857  4.09090909090909 10.7142857142857  L 5 10.7142857142857  C 5.12310606060606 10.7142857142857  5.22964015151515 10.7584635416667  5.31960227272727 10.8468191964286  Z M 16.2286931818182 17.9896763392857  C 16.3186553030303 18.0780319940476  16.3636363636364 18.1826636904762  16.3636363636364 18.3035714285714  L 16.3636363636364 19.1964285714286  C 16.3636363636364 19.3173363095238  16.3186553030303 19.4219680059524  16.2286931818182 19.5103236607143  C 16.1387310606061 19.5986793154762  16.032196969697 19.6428571428571  15.9090909090909 19.6428571428571  L 15 19.6428571428571  C 14.8768939393939 19.6428571428571  14.7703598484849 19.5986793154762  14.6803977272727 19.5103236607143  C 14.5904356060606 19.4219680059524  14.5454545454545 19.3173363095238  14.5454545454545 19.1964285714286  L 14.5454545454545 18.3035714285714  C 14.5454545454545 18.1826636904762  14.5904356060606 18.0780319940476  14.6803977272727 17.9896763392857  C 14.7703598484849 17.9013206845238  14.8768939393939 17.8571428571429  15 17.8571428571429  L 15.9090909090909 17.8571428571429  C 16.032196969697 17.8571428571429  16.1387310606061 17.9013206845238  16.2286931818182 17.9896763392857  Z M 12.5923295454545 14.4182477678571  C 12.6822916666667 14.506603422619  12.7272727272727 14.6112351190476  12.7272727272727 14.7321428571429  L 12.7272727272727 15.625  C 12.7272727272727 15.7459077380952  12.6822916666667 15.8505394345238  12.5923295454545 15.9388950892857  C 12.5023674242424 16.0272507440476  12.3958333333333 16.0714285714286  12.2727272727273 16.0714285714286  L 11.3636363636364 16.0714285714286  C 11.2405303030303 16.0714285714286  11.1339962121212 16.0272507440476  11.0440340909091 15.9388950892857  C 10.954071969697 15.8505394345238  10.9090909090909 15.7459077380952  10.9090909090909 15.625  L 10.9090909090909 14.7321428571429  C 10.9090909090909 14.6112351190476  10.954071969697 14.506603422619  11.0440340909091 14.4182477678571  C 11.1339962121212 14.3298921130952  11.2405303030303 14.2857142857143  11.3636363636364 14.2857142857143  L 12.2727272727273 14.2857142857143  C 12.3958333333333 14.2857142857143  12.5023674242424 14.3298921130952  12.5923295454545 14.4182477678571  Z M 8.95596590909091 10.8468191964286  C 9.04592803030303 10.9351748511905  9.09090909090909 11.039806547619  9.09090909090909 11.1607142857143  L 9.09090909090909 12.0535714285714  C 9.09090909090909 12.1744791666667  9.04592803030303 12.2791108630952  8.95596590909091 12.3674665178571  C 8.86600378787879 12.455822172619  8.7594696969697 12.5  8.63636363636364 12.5  L 7.72727272727273 12.5  C 7.60416666666667 12.5  7.49763257575758 12.455822172619  7.40767045454545 12.3674665178571  C 7.31770833333333 12.2791108630952  7.27272727272727 12.1744791666667  7.27272727272727 12.0535714285714  L 7.27272727272727 11.1607142857143  C 7.27272727272727 11.039806547619  7.31770833333333 10.9351748511905  7.40767045454545 10.8468191964286  C 7.49763257575758 10.7584635416667  7.60416666666667 10.7142857142857  7.72727272727273 10.7142857142857  L 8.63636363636364 10.7142857142857  C 8.7594696969697 10.7142857142857  8.86600378787879 10.7584635416667  8.95596590909091 10.8468191964286  Z M 16.2286931818182 14.4182477678571  C 16.3186553030303 14.506603422619  16.3636363636364 14.6112351190476  16.3636363636364 14.7321428571429  L 16.3636363636364 15.625  C 16.3636363636364 15.7459077380952  16.3186553030303 15.8505394345238  16.2286931818182 15.9388950892857  C 16.1387310606061 16.0272507440476  16.032196969697 16.0714285714286  15.9090909090909 16.0714285714286  L 15 16.0714285714286  C 14.8768939393939 16.0714285714286  14.7703598484849 16.0272507440476  14.6803977272727 15.9388950892857  C 14.5904356060606 15.8505394345238  14.5454545454545 15.7459077380952  14.5454545454545 15.625  L 14.5454545454545 14.7321428571429  C 14.5454545454545 14.6112351190476  14.5904356060606 14.506603422619  14.6803977272727 14.4182477678571  C 14.7703598484849 14.3298921130952  14.8768939393939 14.2857142857143  15 14.2857142857143  L 15.9090909090909 14.2857142857143  C 16.032196969697 14.2857142857143  16.1387310606061 14.3298921130952  16.2286931818182 14.4182477678571  Z M 12.5923295454545 10.8468191964286  C 12.6822916666667 10.9351748511905  12.7272727272727 11.039806547619  12.7272727272727 11.1607142857143  L 12.7272727272727 12.0535714285714  C 12.7272727272727 12.1744791666667  12.6822916666667 12.2791108630952  12.5923295454545 12.3674665178571  C 12.5023674242424 12.455822172619  12.3958333333333 12.5  12.2727272727273 12.5  L 11.3636363636364 12.5  C 11.2405303030303 12.5  11.1339962121212 12.455822172619  11.0440340909091 12.3674665178571  C 10.954071969697 12.2791108630952  10.9090909090909 12.1744791666667  10.9090909090909 12.0535714285714  L 10.9090909090909 11.1607142857143  C 10.9090909090909 11.039806547619  10.954071969697 10.9351748511905  11.0440340909091 10.8468191964286  C 11.1339962121212 10.7584635416667  11.2405303030303 10.7142857142857  11.3636363636364 10.7142857142857  L 12.2727272727273 10.7142857142857  C 12.3958333333333 10.7142857142857  12.5023674242424 10.7584635416667  12.5923295454545 10.8468191964286  Z M 16.2286931818182 10.8468191964286  C 16.3186553030303 10.9351748511905  16.3636363636364 11.039806547619  16.3636363636364 11.1607142857143  L 16.3636363636364 12.0535714285714  C 16.3636363636364 12.1744791666667  16.3186553030303 12.2791108630952  16.2286931818182 12.3674665178571  C 16.1387310606061 12.455822172619  16.032196969697 12.5  15.9090909090909 12.5  L 15 12.5  C 14.8768939393939 12.5  14.7703598484849 12.455822172619  14.6803977272727 12.3674665178571  C 14.5904356060606 12.2791108630952  14.5454545454545 12.1744791666667  14.5454545454545 12.0535714285714  L 14.5454545454545 11.1607142857143  C 14.5454545454545 11.039806547619  14.5904356060606 10.9351748511905  14.6803977272727 10.8468191964286  C 14.7703598484849 10.7584635416667  14.8768939393939 10.7142857142857  15 10.7142857142857  L 15.9090909090909 10.7142857142857  C 16.032196969697 10.7142857142857  16.1387310606061 10.7584635416667  16.2286931818182 10.8468191964286  Z M 12.7272727272727 20.0892857142857  L 12.7272727272727 23.2142857142857  L 18 23.2142857142857  L 18 7.14285714285714  L 14.5454545454545 7.14285714285714  L 14.5454545454545 7.58928571428572  C 14.5454545454545 7.96130952380952  14.4128787878788 8.27752976190476  14.1477272727273 8.53794642857143  C 13.8825757575758 8.79836309523809  13.5606060606061 8.92857142857143  13.1818181818182 8.92857142857143  L 6.81818181818182 8.92857142857143  C 6.43939393939394 8.92857142857143  6.11742424242424 8.79836309523809  5.85227272727273 8.53794642857143  C 5.58712121212121 8.27752976190476  5.45454545454545 7.96130952380952  5.45454545454545 7.58928571428572  L 5.45454545454545 7.14285714285714  L 2 7.14285714285714  L 2 23.2142857142857  L 7.27272727272727 23.2142857142857  L 7.27272727272727 20.0892857142857  C 7.27272727272727 19.9683779761905  7.31770833333333 19.8637462797619  7.40767045454545 19.775390625  C 7.49763257575758 19.6870349702381  7.60416666666667 19.6428571428571  7.72727272727273 19.6428571428571  L 12.2727272727273 19.6428571428571  C 12.3958333333333 19.6428571428571  12.5023674242424 19.6870349702381  12.5923295454545 19.775390625  C 12.6822916666667 19.8637462797619  12.7272727272727 19.9683779761905  12.7272727272727 20.0892857142857  Z M 12.5923295454545 7.01032366071428  C 12.6822916666667 6.92196800595238  12.7272727272727 6.81733630952381  12.7272727272727 6.69642857142857  L 12.7272727272727 2.23214285714286  C 12.7272727272727 2.11123511904762  12.6822916666667 2.00660342261905  12.5923295454545 1.91824776785714  C 12.5023674242424 1.82989211309524  12.3958333333333 1.78571428571428  12.2727272727273 1.78571428571428  L 11.3636363636364 1.78571428571428  C 11.2405303030303 1.78571428571428  11.1339962121212 1.82989211309524  11.0440340909091 1.91824776785714  C 10.954071969697 2.00660342261905  10.9090909090909 2.11123511904762  10.9090909090909 2.23214285714286  L 10.9090909090909 3.57142857142857  L 9.09090909090909 3.57142857142857  L 9.09090909090909 2.23214285714286  C 9.09090909090909 2.11123511904762  9.04592803030303 2.00660342261905  8.95596590909091 1.91824776785714  C 8.86600378787879 1.82989211309524  8.7594696969697 1.78571428571428  8.63636363636364 1.78571428571428  L 7.72727272727273 1.78571428571428  C 7.60416666666667 1.78571428571428  7.49763257575758 1.82989211309524  7.40767045454545 1.91824776785714  C 7.31770833333333 2.00660342261905  7.27272727272727 2.11123511904762  7.27272727272727 2.23214285714286  L 7.27272727272727 6.69642857142857  C 7.27272727272727 6.81733630952381  7.31770833333333 6.92196800595238  7.40767045454545 7.01032366071428  C 7.49763257575758 7.09867931547619  7.60416666666667 7.14285714285714  7.72727272727273 7.14285714285714  L 8.63636363636364 7.14285714285714  C 8.7594696969697 7.14285714285714  8.86600378787879 7.09867931547619  8.95596590909091 7.01032366071428  C 9.04592803030303 6.92196800595238  9.09090909090909 6.81733630952381  9.09090909090909 6.69642857142857  L 9.09090909090909 5.35714285714286  L 10.9090909090909 5.35714285714286  L 10.9090909090909 6.69642857142857  C 10.9090909090909 6.81733630952381  10.954071969697 6.92196800595238  11.0440340909091 7.01032366071428  C 11.1339962121212 7.09867931547619  11.2405303030303 7.14285714285714  11.3636363636364 7.14285714285714  L 12.2727272727273 7.14285714285714  C 12.3958333333333 7.14285714285714  12.5023674242424 7.09867931547619  12.5923295454545 7.01032366071428  Z M 19.7301136363636 5.62220982142857  C 19.9100378787879 5.79892113095238  20 6.00818452380952  20 6.25  L 20 24.1071428571429  C 20 24.3489583333333  19.9100378787879 24.5582217261905  19.7301136363636 24.7349330357143  C 19.5501893939394 24.9116443452381  19.3371212121212 25  19.0909090909091 25  L 0.909090909090909 25  C 0.662878787878788 25  0.449810606060606 24.9116443452381  0.269886363636364 24.7349330357143  C 0.0899621212121212 24.5582217261905  0 24.3489583333333  0 24.1071428571429  L 0 6.25  C 0 6.00818452380952  0.0899621212121212 5.79892113095238  0.269886363636364 5.62220982142857  C 0.449810606060606 5.44549851190476  0.662878787878788 5.35714285714286  0.909090909090909 5.35714285714286  L 5.45454545454545 5.35714285714286  L 5.45454545454545 1.33928571428572  C 5.45454545454545 0.967261904761904  5.58712121212121 0.651041666666666  5.85227272727273 0.390625  C 6.11742424242424 0.130208333333334  6.43939393939394 0  6.81818181818182 0  L 13.1818181818182 0  C 13.5606060606061 0  13.8825757575758 0.130208333333334  14.1477272727273 0.390625  C 14.4128787878788 0.651041666666666  14.5454545454545 0.967261904761904  14.5454545454545 1.33928571428572  L 14.5454545454545 5.35714285714286  L 19.0909090909091 5.35714285714286  C 19.3371212121212 5.35714285714286  19.5501893939394 5.44549851190476  19.7301136363636 5.62220982142857  Z " fill-rule="nonzero" fill="url(#LinearGradient61)" stroke="none" transform="matrix(1 0 0 1 1 1 )" />
  </g>
</svg>