<?xml version="1.0" encoding="utf-8"?>
<svg version="1.1" xmlns:xlink="http://www.w3.org/1999/xlink" width="36px" height="22px" xmlns="http://www.w3.org/2000/svg">
  <g transform="matrix(1 0 0 1 -1183 -14 )">
    <path d="M 34.9352678571429 9.94125  C 35.6450892857143 11.1695833333333  36 12.6958333333333  36 14.52  C 36 16.0416666666667  35.1495535714286 18.10875  33.4486607142857 20.72125  C 33.4084821428571 20.7854166666667  33.3381696428571 20.8954166666667  33.2377232142857 21.05125  C 33.1372767857143 21.2070833333333  33.046875 21.3445833333333  32.9665178571429 21.46375  C 32.8861607142857 21.5829166666667  32.7991071428571 21.68375  32.7053571428571 21.76625  C 32.5446428571429 21.9220833333333  32.3571428571429 22  32.1428571428571 22  C 31.9419642857143 22  31.7845982142857 21.9541666666667  31.6707589285714 21.8625  C 31.5569196428571 21.7708333333333  31.5 21.65625  31.5 21.51875  C 31.5 21.43625  31.5167410714286 21.3147916666667  31.5502232142857 21.154375  C 31.5837053571429 20.9939583333333  31.6004464285714 20.88625  31.6004464285714 20.83125  C 31.6674107142857 20.2079166666667  31.7008928571429 19.6441666666667  31.7008928571429 19.14  C 31.7008928571429 18.2141666666667  31.5837053571429 17.3845833333333  31.3493303571429 16.65125  C 31.1149553571429 15.9179166666667  30.7901785714286 15.283125  30.375 14.746875  C 29.9598214285714 14.210625  29.4241071428571 13.7477083333333  28.7678571428571 13.358125  C 28.1116071428571 12.9685416666667  27.4051339285714 12.65  26.6484375 12.4025  C 25.8917410714286 12.155  25.0011160714286 11.9602083333333  23.9765625 11.818125  C 22.9520089285714 11.6760416666667  21.9207589285714 11.5775  20.8828125 11.5225  C 19.8448660714286 11.4675  18.6696428571429 11.44  17.3571428571429 11.44  L 12.8571428571429 11.44  L 12.8571428571429 14.96  C 12.8571428571429 15.1983333333333  12.7299107142857 15.4045833333333  12.4754464285714 15.57875  C 12.2209821428571 15.7529166666667  11.9196428571429 15.84  11.5714285714286 15.84  C 11.2232142857143 15.84  10.921875 15.7529166666667  10.6674107142857 15.57875  L 0.381696428571429 8.53875  C 0.127232142857143 8.36458333333333  0 8.15833333333333  0 7.92  C 0 7.68166666666667  0.127232142857143 7.47541666666667  0.381696428571429 7.30125  L 10.6674107142857 0.261249999999999  C 10.921875 0.0870833333333323  11.2232142857143 0  11.5714285714286 0  C 11.9196428571429 0  12.2209821428571 0.0870833333333323  12.4754464285714 0.261249999999999  C 12.7299107142857 0.435416666666664  12.8571428571429 0.641666666666664  12.8571428571429 0.880000000000001  L 12.8571428571429 4.4  L 17.3571428571429 4.4  C 26.90625 4.4  32.765625 6.24708333333333  34.9352678571429 9.94125  Z " fill-rule="nonzero" fill="#15c2d6" stroke="none" transform="matrix(1 0 0 1 1183 14 )" />
  </g>
</svg>