<?xml version="1.0" encoding="utf-8"?>
<svg version="1.1" xmlns:xlink="http://www.w3.org/1999/xlink" width="10px" height="10px" xmlns="http://www.w3.org/2000/svg">
  <g transform="matrix(1 0 0 1 -48 -192 )">
    <path d="M 53 193  C 55.24 193  57 194.76  57 197  C 57 199.24  55.24 201  53 201  C 50.76 201  49 199.24  49 197  C 49 194.76  50.76 193  53 193  Z " fill-rule="nonzero" fill="#ffffff" stroke="none" />
    <path d="M 53 193  C 55.24 193  57 194.76  57 197  C 57 199.24  55.24 201  53 201  C 50.76 201  49 199.24  49 197  C 49 194.76  50.76 193  53 193  Z " stroke-width="2" stroke="#1890ff" fill="none" />
  </g>
</svg>