<?xml version="1.0" encoding="utf-8"?>
<svg version="1.1" xmlns:xlink="http://www.w3.org/1999/xlink" width="9px" height="5px" xmlns="http://www.w3.org/2000/svg">
  <g transform="matrix(1 0 0 1 -480 -11 )">
    <path d="M 8.90981963927857 0.512518409425632  C 8.96993987975953 0.569464899361805  9 0.634953362788414  9 0.708983799705451  C 9 0.783014236622489  8.96993987975953 0.84850270004909  8.90981963927857 0.905449189985278  L 4.70741482965931 4.88600883652431  C 4.64729458917835 4.9429553264605  4.57815631262525 4.97142857142858  4.5 4.97142857142858  C 4.42184368737475 4.97142857142858  4.35270541082165 4.9429553264605  4.29258517034069 4.88600883652431  L 0.0901803607214333 0.905449189985278  C 0.0300601202404707 0.84850270004909  0 0.783014236622489  0 0.708983799705451  C 0 0.634953362788414  0.0300601202404707 0.569464899361805  0.0901803607214333 0.512518409425632  L 0.541082164328664 0.0854197349042707  C 0.601202404809605 0.0284732449680902  0.670340681362724 0  0.748496993987978 0  C 0.826653306613231 0  0.895791583166329 0.0284732449680902  0.955911823647291 0.0854197349042707  L 4.5 3.44241531664212  L 8.04408817635271 0.0854197349042707  C 8.10420841683367 0.0284732449680902  8.17334669338677 0  8.25150300601202 0  C 8.32965931863728 0  8.39879759519039 0.0284732449680902  8.45891783567134 0.0854197349042707  L 8.90981963927857 0.512518409425632  Z " fill-rule="nonzero" fill="#ffffff" stroke="none" transform="matrix(1 0 0 1 480 11 )" />
  </g>
</svg>