<?xml version="1.0" encoding="utf-8"?>
<svg version="1.1" xmlns:xlink="http://www.w3.org/1999/xlink" width="6px" height="9px" xmlns="http://www.w3.org/2000/svg">
  <g transform="matrix(1 0 0 1 -68 -18 )">
    <path d="M 5.925 4.96534090909091  C 5.975 5.04715909090909  6 5.1375  6 5.23636363636364  C 6 5.37272727272727  5.95625 5.48863636363636  5.86875 5.58409090909091  C 5.78125 5.67954545454545  5.675 5.72727272727273  5.55 5.72727272727273  C 5.390625 5.72727272727273  5.265625 5.65397727272727  5.175 5.50738636363636  L 4.1109375 3.76363636363636  L 3.9 3.76363636363636  L 3.9 4.43863636363636  L 5.0578125 6.54034090909091  C 5.0859375 6.59147727272727  5.1 6.64772727272727  5.1 6.70909090909091  C 5.1 6.79772727272727  5.0703125 6.87443181818182  5.0109375 6.93920454545455  C 4.9515625 7.00397727272727  4.88125 7.03636363636364  4.8 7.03636363636364  L 3.9 7.03636363636364  L 3.9 8.42727272727273  C 3.9 8.58409090909091  3.8484375 8.71875  3.7453125 8.83125  C 3.6421875 8.94375  3.51875 9  3.375 9  L 2.625 9  C 2.48125 9  2.3578125 8.94375  2.2546875 8.83125  C 2.1515625 8.71875  2.1 8.58409090909091  2.1 8.42727272727273  L 2.1 7.03636363636364  L 1.2 7.03636363636364  C 1.11875 7.03636363636364  1.0484375 7.00397727272727  0.9890625 6.93920454545455  C 0.9296875 6.87443181818182  0.9 6.79772727272727  0.9 6.70909090909091  C 0.9 6.64772727272727  0.9140625 6.59147727272727  0.9421875 6.54034090909091  L 2.1 4.43863636363636  L 2.1 3.76363636363636  L 1.8890625 3.76363636363636  L 0.825 5.50738636363636  C 0.734375 5.65397727272727  0.609375 5.72727272727273  0.45 5.72727272727273  C 0.325 5.72727272727273  0.21875 5.67954545454545  0.13125 5.58409090909091  C 0.04375 5.48863636363636  0 5.37272727272727  0 5.23636363636364  C 0 5.1375  0.025 5.04715909090909  0.075 4.96534090909091  L 1.275 3.00170454545455  C 1.503125 2.63693181818182  1.778125 2.45454545454545  2.1 2.45454545454545  L 3.9 2.45454545454545  C 4.221875 2.45454545454545  4.496875 2.63693181818182  4.725 3.00170454545455  L 5.925 4.96534090909091  Z M 3.74296875 0.334943181818182  C 3.94765625 0.558238636363635  4.05 0.828409090909091  4.05 1.14545454545455  C 4.05 1.4625  3.94765625 1.73267045454545  3.74296875 1.95596590909091  C 3.53828125 2.17926136363636  3.290625 2.29090909090909  3 2.29090909090909  C 2.709375 2.29090909090909  2.46171875 2.17926136363636  2.25703125 1.95596590909091  C 2.05234375 1.73267045454545  1.95 1.4625  1.95 1.14545454545455  C 1.95 0.828409090909091  2.05234375 0.558238636363635  2.25703125 0.334943181818182  C 2.46171875 0.111647727272727  2.709375 0  3 0  C 3.290625 0  3.53828125 0.111647727272727  3.74296875 0.334943181818182  Z " fill-rule="nonzero" fill="#ffffff" stroke="none" transform="matrix(1 0 0 1 68 18 )" />
  </g>
</svg>