<?xml version="1.0" encoding="utf-8"?>
<svg version="1.1" xmlns:xlink="http://www.w3.org/1999/xlink" width="50px" height="50px" xmlns="http://www.w3.org/2000/svg">
  <g transform="matrix(1 0 0 1 -493 -545 )">
    <path d="M 518 546.5  C 531.16 546.5  541.5 556.84  541.5 570  C 541.5 583.16  531.16 593.5  518 593.5  C 504.84 593.5  494.5 583.16  494.5 570  C 494.5 556.84  504.84 546.5  518 546.5  Z " fill-rule="nonzero" fill="#1acdfd" stroke="none" fill-opacity="0" />
    <path d="M 518 546  C 531.44 546  542 556.56  542 570  C 542 583.44  531.44 594  518 594  C 504.56 594  494 583.44  494 570  C 494 556.56  504.56 546  518 546  Z " stroke-width="2" stroke-dasharray="34,8,10,8" stroke="#15c3d7" fill="none" stroke-opacity="0.6" />
  </g>
</svg>