<?xml version="1.0" encoding="utf-8"?>
<svg version="1.1" xmlns:xlink="http://www.w3.org/1999/xlink" width="20px" height="20px" xmlns="http://www.w3.org/2000/svg">
  <defs>
    <mask fill="white" id="clip93">
      <path d="M 10 20  C 4.40000000000009 20  0 15.6  0 10  C 0 9.80604643541272  0.00527803364002466 9.61353233454543  0.0157011537203289 9.42259064459796  C 0.306223636642926 4.10049386071717  4.59395356458731 0  10 0  C 15.5999999999999 0  20 4.39999999999998  20 10  C 20 15.6  15.5999999999999 20  10 20  Z " fill-rule="evenodd" />
    </mask>
  </defs>
  <g transform="matrix(1 0 0 1 -1387 -319 )">
    <path d="M 10 20  C 4.40000000000009 20  0 15.6  0 10  C 0 9.80604643541272  0.00527803364002466 9.61353233454543  0.0157011537203289 9.42259064459796  C 0.306223636642926 4.10049386071717  4.59395356458731 0  10 0  C 15.5999999999999 0  20 4.39999999999998  20 10  C 20 15.6  15.5999999999999 20  10 20  Z " fill-rule="nonzero" fill="#147e92" stroke="none" transform="matrix(1 0 0 1 1387 319 )" />
    <path d="M 10 20  C 4.40000000000009 20  0 15.6  0 10  C 0 9.80604643541272  0.00527803364002466 9.61353233454543  0.0157011537203289 9.42259064459796  C 0.306223636642926 4.10049386071717  4.59395356458731 0  10 0  C 15.5999999999999 0  20 4.39999999999998  20 10  C 20 15.6  15.5999999999999 20  10 20  Z " stroke-width="2" stroke="#ffffff" fill="none" transform="matrix(1 0 0 1 1387 319 )" mask="url(#clip93)" />
  </g>
</svg>