<?xml version="1.0" encoding="utf-8"?>
<svg version="1.1" xmlns:xlink="http://www.w3.org/1999/xlink" width="50px" height="50px" xmlns="http://www.w3.org/2000/svg">
  <g transform="matrix(1 0 0 1 -489 -323 )">
    <path d="M 514 324.5  C 527.16 324.5  537.5 334.84  537.5 348  C 537.5 361.16  527.16 371.5  514 371.5  C 500.84 371.5  490.5 361.16  490.5 348  C 490.5 334.84  500.84 324.5  514 324.5  Z " fill-rule="nonzero" fill="#1acdfd" stroke="none" fill-opacity="0" />
    <path d="M 514 324  C 527.44 324  538 334.56  538 348  C 538 361.44  527.44 372  514 372  C 500.56 372  490 361.44  490 348  C 490 334.56  500.56 324  514 324  Z " stroke-width="2" stroke-dasharray="34,8,10,8" stroke="#108398" fill="none" />
  </g>
</svg>