<?xml version="1.0" encoding="utf-8"?>
<svg version="1.1" xmlns:xlink="http://www.w3.org/1999/xlink" width="86px" height="86px" xmlns="http://www.w3.org/2000/svg">
  <defs>
    <mask fill="white" id="clip90">
      <path d="M 29 0.204225352112676  C 13.1112676056338 0.204225352112676  0.163380281690143 13.1112676056338  0.163380281690143 29  C 0.163380281690143 44.8887323943662  13.1112676056338 57.7957746478873  29 57.7957746478873  C 44.8887323943662 57.7957746478873  57.8366197183099 44.8887323943662  57.8366197183099 29  C 57.8366197183099 13.1112676056338  44.8887323943662 0.204225352112676  29 0.204225352112676  Z M 34.5549295774648 1.06197183098592  L 35.0042253521127 1.87887323943662  C 47.3394366197183 4.65633802816902  56.6112676056338 15.7661971830986  56.6112676056338 29  C 56.6112676056338 31.9  56.1619718309859 34.6774647887324  55.3450704225352 37.3323943661972  L 55.9169014084507 38.312676056338  C 54.6915492957746 41.8661971830986  52.7309859154929 45.0929577464789  50.2802816901408 47.8704225352113  L 49.2591549295774 47.8704225352113  C 44.1943661971831 53.3845070422535  36.9647887323943 56.8154929577465  28.9591549295774 56.8154929577465  C 20.9535211267605 56.8154929577465  13.7239436619718 53.3845070422535  8.65915492957744 47.8704225352113  L 7.63802816901406 47.8704225352113  C 5.26901408450701 45.174647887324  3.34929577464786 42.0295774647887  2.1239436619718 38.5985915492958  L 2.6957746478873 37.6183098591549  C 1.79718309859153 34.9225352112676  1.34788732394363 32.0225352112676  1.34788732394363 29  C 1.34788732394363 15.643661971831  10.7422535211267 4.45211267605635  23.281690140845 1.79718309859156  L 23.7309859154929 0.980281690140859  C 25.4464788732394 0.653521126760579  27.2028169014084 0.490140845070435  29 0.490140845070435  C 30.9197183098592 0.530985915492956  32.7577464788732 0.735211267605633  34.5549295774648 1.06197183098592  Z " fill-rule="evenodd" />
    </mask>
    <filter x="475px" y="526px" width="86px" height="86px" filterUnits="userSpaceOnUse" id="filter91">
      <feOffset dx="0" dy="0" in="SourceAlpha" result="shadowOffsetInner" />
      <feGaussianBlur stdDeviation="7" in="shadowOffsetInner" result="shadowGaussian" />
      <feComposite in2="shadowGaussian" operator="atop" in="SourceAlpha" result="shadowComposite" />
      <feColorMatrix type="matrix" values="0 0 0 0 0.0823529411764706  0 0 0 0 0.76078431372549  0 0 0 0 0.83921568627451  0 0 0 1 0  " in="shadowComposite" />
    </filter>
    <g id="widget92">
      <path d="M 29 0.204225352112676  C 13.1112676056338 0.204225352112676  0.163380281690143 13.1112676056338  0.163380281690143 29  C 0.163380281690143 44.8887323943662  13.1112676056338 57.7957746478873  29 57.7957746478873  C 44.8887323943662 57.7957746478873  57.8366197183099 44.8887323943662  57.8366197183099 29  C 57.8366197183099 13.1112676056338  44.8887323943662 0.204225352112676  29 0.204225352112676  Z M 34.5549295774648 1.06197183098592  L 35.0042253521127 1.87887323943662  C 47.3394366197183 4.65633802816902  56.6112676056338 15.7661971830986  56.6112676056338 29  C 56.6112676056338 31.9  56.1619718309859 34.6774647887324  55.3450704225352 37.3323943661972  L 55.9169014084507 38.312676056338  C 54.6915492957746 41.8661971830986  52.7309859154929 45.0929577464789  50.2802816901408 47.8704225352113  L 49.2591549295774 47.8704225352113  C 44.1943661971831 53.3845070422535  36.9647887323943 56.8154929577465  28.9591549295774 56.8154929577465  C 20.9535211267605 56.8154929577465  13.7239436619718 53.3845070422535  8.65915492957744 47.8704225352113  L 7.63802816901406 47.8704225352113  C 5.26901408450701 45.174647887324  3.34929577464786 42.0295774647887  2.1239436619718 38.5985915492958  L 2.6957746478873 37.6183098591549  C 1.79718309859153 34.9225352112676  1.34788732394363 32.0225352112676  1.34788732394363 29  C 1.34788732394363 15.643661971831  10.7422535211267 4.45211267605635  23.281690140845 1.79718309859156  L 23.7309859154929 0.980281690140859  C 25.4464788732394 0.653521126760579  27.2028169014084 0.490140845070435  29 0.490140845070435  C 30.9197183098592 0.530985915492956  32.7577464788732 0.735211267605633  34.5549295774648 1.06197183098592  Z " fill-rule="nonzero" fill="#15c3d7" stroke="none" transform="matrix(1 0 0 1 489 540 )" />
      <path d="M 29 0.204225352112676  C 13.1112676056338 0.204225352112676  0.163380281690143 13.1112676056338  0.163380281690143 29  C 0.163380281690143 44.8887323943662  13.1112676056338 57.7957746478873  29 57.7957746478873  C 44.8887323943662 57.7957746478873  57.8366197183099 44.8887323943662  57.8366197183099 29  C 57.8366197183099 13.1112676056338  44.8887323943662 0.204225352112676  29 0.204225352112676  Z " stroke-width="2" stroke="#797979" fill="none" transform="matrix(1 0 0 1 489 540 )" mask="url(#clip90)" />
      <path d="M 34.5549295774648 1.06197183098592  L 35.0042253521127 1.87887323943662  C 47.3394366197183 4.65633802816902  56.6112676056338 15.7661971830986  56.6112676056338 29  C 56.6112676056338 31.9  56.1619718309859 34.6774647887324  55.3450704225352 37.3323943661972  L 55.9169014084507 38.312676056338  C 54.6915492957746 41.8661971830986  52.7309859154929 45.0929577464789  50.2802816901408 47.8704225352113  L 49.2591549295774 47.8704225352113  C 44.1943661971831 53.3845070422535  36.9647887323943 56.8154929577465  28.9591549295774 56.8154929577465  C 20.9535211267605 56.8154929577465  13.7239436619718 53.3845070422535  8.65915492957744 47.8704225352113  L 7.63802816901406 47.8704225352113  C 5.26901408450701 45.174647887324  3.34929577464786 42.0295774647887  2.1239436619718 38.5985915492958  L 2.6957746478873 37.6183098591549  C 1.79718309859153 34.9225352112676  1.34788732394363 32.0225352112676  1.34788732394363 29  C 1.34788732394363 15.643661971831  10.7422535211267 4.45211267605635  23.281690140845 1.79718309859156  L 23.7309859154929 0.980281690140859  C 25.4464788732394 0.653521126760579  27.2028169014084 0.490140845070435  29 0.490140845070435  C 30.9197183098592 0.530985915492956  32.7577464788732 0.735211267605633  34.5549295774648 1.06197183098592  Z " stroke-width="2" stroke="#797979" fill="none" transform="matrix(1 0 0 1 489 540 )" mask="url(#clip90)" />
    </g>
  </defs>
  <g transform="matrix(1 0 0 1 -475 -526 )">
    <use xlink:href="#widget92" filter="url(#filter91)" />
    <use xlink:href="#widget92" />
  </g>
</svg>