<?xml version="1.0" encoding="utf-8"?>
<svg version="1.1" xmlns:xlink="http://www.w3.org/1999/xlink" width="25px" height="16px" xmlns="http://www.w3.org/2000/svg">
  <defs>
    <linearGradient gradientUnits="userSpaceOnUse" x1="12.5" y1="0" x2="12.5" y2="16" id="LinearGradient55">
      <stop id="Stop56" stop-color="#6633ff" offset="0" />
      <stop id="Stop57" stop-color="#6633ff" offset="0.33" />
      <stop id="Stop58" stop-color="#613efb" offset="0.36" />
      <stop id="Stop59" stop-color="#1dc2cf" offset="0.76" />
      <stop id="Stop60" stop-color="#ceb39b" offset="1" />
    </linearGradient>
  </defs>
  <g transform="matrix(1 0 0 1 -1 -3 )">
    <path d="M 3.125 0.800000000000001  L 3.125 9.6  L 24.21875 9.6  C 24.4303385416667 9.6  24.6134440104167 9.67916666666667  24.76806640625 9.8375  C 24.9226888020833 9.99583333333333  25 10.1833333333333  25 10.4  L 25 16  L 21.875 16  L 21.875 12.8  L 3.125 12.8  L 3.125 16  L 0 16  L 0 0.800000000000001  C 0 0.583333333333332  0.0773111979166667 0.395833333333332  0.23193359375 0.237500000000001  C 0.386555989583333 0.0791666666666657  0.569661458333333 0  0.78125 0  L 2.34375 0  C 2.55533854166667 0  2.73844401041667 0.0791666666666657  2.89306640625 0.237500000000001  C 3.04768880208333 0.395833333333332  3.125 0.583333333333332  3.125 0.800000000000001  Z M 9.24072265625 7.8625  C 9.85107421875 7.2375  10.15625 6.48333333333333  10.15625 5.6  C 10.15625 4.71666666666667  9.85107421875 3.9625  9.24072265625 3.3375  C 8.63037109375 2.7125  7.89388020833333 2.4  7.03125 2.4  C 6.16861979166667 2.4  5.43212890625 2.7125  4.82177734375 3.3375  C 4.21142578125 3.9625  3.90625 4.71666666666667  3.90625 5.6  C 3.90625 6.48333333333333  4.21142578125 7.2375  4.82177734375 7.8625  C 5.43212890625 8.4875  6.16861979166667 8.8  7.03125 8.8  C 7.89388020833333 8.8  8.63037109375 8.4875  9.24072265625 7.8625  Z M 10.9375 8.8  L 25 8.8  L 25 8  C 25 6.675  24.542236328125 5.54375  23.626708984375 4.60625  C 22.711181640625 3.66875  21.6064453125 3.2  20.3125 3.2  L 11.71875 3.2  C 11.5071614583333 3.2  11.3240559895833 3.27916666666667  11.16943359375 3.4375  C 11.0148111979167 3.59583333333333  10.9375 3.78333333333333  10.9375 4  L 10.9375 8.8  Z " fill-rule="nonzero" fill="url(#LinearGradient55)" stroke="none" transform="matrix(1 0 0 1 1 3 )" />
  </g>
</svg>