<?xml version="1.0" encoding="utf-8"?>
<svg version="1.1" xmlns:xlink="http://www.w3.org/1999/xlink" width="26px" height="26px" xmlns="http://www.w3.org/2000/svg">
  <defs>
    <linearGradient gradientUnits="userSpaceOnUse" x1="13" y1="0" x2="13" y2="26" id="LinearGradient66">
      <stop id="Stop67" stop-color="#6633ff" offset="0" />
      <stop id="Stop68" stop-color="#6633ff" offset="0.33" />
      <stop id="Stop69" stop-color="#1dc2cf" offset="0.76" />
      <stop id="Stop70" stop-color="#ceb39b" offset="1" />
    </linearGradient>
  </defs>
  <g transform="matrix(1 0 0 1 0 -2 )">
    <path d="M 24.5230769335938 7.07692306640625  L 18.9230769335937 10.3076923203125  C 19.2461538671875 11.1692307734375  19.4615384804688 12.0307692539062  19.461538453125 13  C 19.461538453125 16.5538461601563  16.5538461328125 19.461538453125  13 19.461538453125  C 10.2 19.461538453125  7.8307692265625 17.7384615195312  6.9692307734375 15.1538461601562  L 0.723076933593749 16.8769230664062  C 2.338461546875 22.1538461601562  7.18461538671875 25.9230769335937  13 25.9230769335937  C 20.1076923203125 25.9230769335937  25.9230769335938 20.1076923203125  25.9230769335938 13  C 25.9230769335938 10.8461538398437  25.3846153867188 8.8  24.5230769335938 7.07692306640625  Z M 14.0769230664063 0.18461538671875  L 14.0769230664063 6.64615383984375  C 15.4769230664063 6.861538453125  16.7692307460938 7.50769229296875  17.6307692265625 8.58461538671875  L 23.338461546875 5.35384616015625  C 21.1846153867188 2.44615383984375  17.8461538671875 0.5076923203125  14.0769230664063 0.18461538671875  Z M 0.18461538671875 14.7230769335938  L 6.538461546875 13.1076923203125  C 6.538461546875 13  6.538461546875 13  6.538461546875 13.1076923203125  C 6.538461546875 9.87692309375  8.9076923203125 7.18461538671875  11.9230769335938 6.64615383984375  L 11.9230769335938 0.184615386718749  C 5.24615383984375 0.72307693359375  0.0769230664062499 6.21538461328125  0.0769230664062499 13  C 0.0769230664062499 13.6461538398438  0.18461538671875 14.1846153867188  0.18461538671875 14.7230769335938  Z " fill-rule="nonzero" fill="url(#LinearGradient66)" stroke="none" transform="matrix(1 0 0 1 0 2 )" />
  </g>
</svg>